<svg xmlns="http://www.w3.org/2000/svg" xmlns:xlink="http://www.w3.org/1999/xlink" width="150" zoomAndPan="magnify" viewBox="0 0 112.5 112.499997" height="150" preserveAspectRatio="xMidYMid meet" version="1.0"><defs><clipPath id="22fcd9e49d"><path d="M 0 0 L 112.003906 0 L 112.003906 112.003906 L 0 112.003906 Z M 0 0 " clip-rule="nonzero"/></clipPath><clipPath id="ee22074068"><path d="M 1.140625 60.242188 L 50.230469 60.242188 L 50.230469 87.910156 L 1.140625 87.910156 Z M 1.140625 60.242188 " clip-rule="nonzero"/></clipPath><clipPath id="64b3ae0960"><path d="M 61.566406 60.242188 L 110.851562 60.242188 L 110.851562 87.910156 L 61.566406 87.910156 Z M 61.566406 60.242188 " clip-rule="nonzero"/></clipPath><clipPath id="1f5fbfed56"><path d="M 39 25.324219 L 73 25.324219 L 73 75 L 39 75 Z M 39 25.324219 " clip-rule="nonzero"/></clipPath></defs><g clip-path="url(#22fcd9e49d)"><path fill="#ffffff" d="M 0 0 L 112.003906 0 L 112.003906 112.003906 L 0 112.003906 Z M 0 0 " fill-opacity="1" fill-rule="nonzero"/><path fill="#ffffff" d="M 0 0 L 112.003906 0 L 112.003906 112.003906 L 0 112.003906 Z M 0 0 " fill-opacity="1" fill-rule="nonzero"/></g><g clip-path="url(#ee22074068)"><path fill="#9d5c63" d="M 35.375 84.839844 C 34.070312 84.839844 32.773438 84.777344 31.492188 84.644531 C 29.347656 84.421875 27.25 83.992188 25.230469 83.363281 C 23.21875 82.726562 21.289062 81.878906 19.492188 80.808594 C 17.695312 79.75 15.960938 78.464844 14.339844 77.097656 C 12.730469 75.703125 11.191406 74.21875 9.800781 72.601562 C 9.089844 71.804688 8.421875 70.972656 7.777344 70.128906 L 7.054688 69.125 C 7.15625 69.042969 7.25 68.964844 7.351562 68.882812 C 7.980469 68.402344 8.632812 67.949219 9.308594 67.53125 C 10.660156 66.691406 12.085938 65.972656 13.566406 65.398438 C 16.085938 64.429688 18.765625 63.894531 21.488281 63.894531 C 21.667969 63.894531 21.851562 63.910156 22.03125 63.914062 C 21.511719 62.894531 21.023438 61.8125 20.597656 60.667969 C 20.5625 60.570312 20.53125 60.484375 20.496094 60.390625 C 20.152344 60.375 19.804688 60.351562 19.457031 60.351562 C 17.003906 60.351562 14.542969 60.730469 12.203125 61.480469 C 10.410156 62.039062 8.683594 62.796875 7.050781 63.722656 C 6.234375 64.179688 5.441406 64.679688 4.667969 65.222656 C 4.28125 65.492188 3.902344 65.777344 3.527344 66.078125 C 3.34375 66.226562 3.15625 66.378906 2.96875 66.539062 L 2.6875 66.785156 C 2.585938 66.875 2.511719 66.941406 2.375 67.074219 L 1.140625 68.269531 L 1.984375 69.816406 C 2.167969 70.152344 2.3125 70.390625 2.472656 70.664062 L 2.960938 71.4375 C 3.285156 71.949219 3.632812 72.441406 3.984375 72.925781 C 4.695312 73.886719 5.433594 74.824219 6.21875 75.726562 C 7.792969 77.515625 9.503906 79.191406 11.382812 80.675781 C 13.253906 82.179688 15.261719 83.460938 17.40625 84.601562 C 19.574219 85.703125 21.859375 86.582031 24.214844 87.105469 C 26.5625 87.65625 28.960938 87.898438 31.332031 87.914062 C 33.703125 87.902344 36.050781 87.652344 38.339844 87.191406 C 39.484375 86.96875 40.609375 86.671875 41.722656 86.355469 C 42.832031 86.019531 43.929688 85.652344 45 85.230469 C 46.800781 84.515625 48.554688 83.691406 50.207031 82.710938 L 49.707031 82.605469 C 45.847656 83.773438 41.921875 84.507812 38.015625 84.757812 C 37.132812 84.8125 36.25 84.839844 35.375 84.839844 " fill-opacity="1" fill-rule="nonzero"/></g><path fill="#040606" d="M 51.132812 82.152344 C 50.894531 82.234375 50.65625 82.304688 50.414062 82.378906 L 50.601562 82.472656 C 50.777344 82.367188 50.960938 82.265625 51.132812 82.152344 " fill-opacity="1" fill-rule="nonzero"/><path fill="#040606" d="M 21.996094 62.207031 C 21.734375 61.621094 21.492188 61.023438 21.269531 60.417969 C 21.492188 61.023438 21.734375 61.621094 21.996094 62.207031 " fill-opacity="1" fill-rule="nonzero"/><path fill="#bcd6e3" d="M 35.253906 73.734375 C 33.605469 72.277344 32.078125 70.71875 30.71875 69.046875 C 29.628906 67.699219 28.65625 66.277344 27.804688 64.796875 C 27.597656 64.441406 27.390625 64.082031 27.199219 63.71875 C 26.792969 62.933594 26.429688 62.128906 26.101562 61.316406 C 25.640625 60.1875 25.25 59.035156 24.953125 57.859375 C 24.429688 55.839844 24.113281 53.703125 23.9375 51.59375 C 23.785156 49.472656 23.75 47.335938 23.910156 45.207031 C 23.972656 44.144531 24.085938 43.085938 24.230469 42.035156 L 24.429688 40.8125 C 24.554688 40.828125 24.683594 40.835938 24.808594 40.855469 C 25.59375 40.957031 26.375 41.097656 27.152344 41.277344 C 28.699219 41.640625 30.21875 42.136719 31.671875 42.777344 C 34.570312 44.0625 37.207031 45.929688 39.320312 48.359375 C 39.496094 48.558594 39.660156 48.765625 39.828125 48.972656 C 39.960938 48.566406 40.101562 48.148438 40.269531 47.707031 C 40.554688 46.957031 40.886719 46.195312 41.238281 45.433594 C 39.164062 42.792969 36.484375 40.589844 33.480469 39.042969 C 31.816406 38.171875 30.058594 37.488281 28.253906 36.988281 C 27.347656 36.738281 26.433594 36.53125 25.503906 36.367188 C 25.039062 36.285156 24.570312 36.222656 24.09375 36.167969 C 23.855469 36.140625 23.617188 36.117188 23.371094 36.097656 L 23 36.074219 C 22.863281 36.066406 22.761719 36.0625 22.570312 36.058594 L 20.851562 36.03125 L 20.355469 37.71875 C 20.246094 38.089844 20.179688 38.359375 20.101562 38.667969 L 19.894531 39.558594 C 19.765625 40.148438 19.660156 40.738281 19.566406 41.332031 C 19.386719 42.515625 19.246094 43.699219 19.164062 44.890625 C 19.011719 47.269531 19.035156 49.664062 19.3125 52.035156 C 19.570312 54.421875 20.082031 56.746094 20.792969 59.066406 C 20.863281 59.277344 20.941406 59.484375 21.015625 59.695312 C 21.054688 59.816406 21.097656 59.9375 21.140625 60.058594 C 21.183594 60.179688 21.222656 60.300781 21.269531 60.417969 C 21.492188 61.023438 21.734375 61.621094 21.996094 62.207031 C 22.257812 62.796875 22.539062 63.375 22.839844 63.941406 C 22.90625 64.066406 22.988281 64.1875 23.058594 64.3125 C 23.125 64.4375 23.203125 64.558594 23.273438 64.683594 C 23.457031 65.007812 23.632812 65.335938 23.832031 65.648438 C 25.105469 67.695312 26.625 69.558594 28.292969 71.242188 C 29.980469 72.910156 31.816406 74.390625 33.757812 75.683594 C 34.726562 76.332031 35.734375 76.917969 36.746094 77.484375 C 37.765625 78.027344 38.800781 78.542969 39.859375 79 C 41.972656 79.914062 44.144531 80.679688 46.375 81.15625 C 42.3125 79.125 38.558594 76.632812 35.253906 73.734375 " fill-opacity="1" fill-rule="nonzero"/><path fill="#040606" d="M 50.601562 82.472656 L 50.414062 82.378906 C 50.179688 82.457031 49.941406 82.53125 49.707031 82.605469 L 50.207031 82.710938 C 50.339844 82.632812 50.472656 82.554688 50.601562 82.472656 " fill-opacity="1" fill-rule="nonzero"/><g clip-path="url(#64b3ae0960)"><path fill="#9d5c63" d="M 89.882812 63.914062 C 90.066406 63.90625 90.25 63.894531 90.429688 63.894531 C 93.164062 63.894531 95.855469 64.429688 98.382812 65.398438 C 99.871094 65.972656 101.300781 66.691406 102.660156 67.53125 C 103.335938 67.949219 103.992188 68.402344 104.621094 68.882812 C 104.722656 68.960938 104.820312 69.042969 104.921875 69.125 L 104.195312 70.128906 C 103.550781 70.972656 102.878906 71.804688 102.164062 72.597656 C 100.769531 74.214844 99.222656 75.703125 97.609375 77.09375 C 95.980469 78.460938 94.238281 79.746094 92.433594 80.808594 C 90.628906 81.875 88.695312 82.726562 86.671875 83.363281 C 84.648438 83.992188 82.539062 84.421875 80.386719 84.644531 C 79.101562 84.777344 77.800781 84.839844 76.492188 84.839844 C 75.609375 84.839844 74.726562 84.8125 73.839844 84.757812 C 69.917969 84.507812 65.972656 83.769531 62.101562 82.601562 L 61.597656 82.710938 C 63.257812 83.691406 65.015625 84.515625 66.828125 85.230469 C 67.902344 85.652344 69.003906 86.019531 70.117188 86.355469 C 71.234375 86.671875 72.363281 86.964844 73.511719 87.191406 C 75.808594 87.648438 78.167969 87.898438 80.550781 87.910156 C 82.929688 87.898438 85.335938 87.652344 87.695312 87.105469 C 90.058594 86.582031 92.351562 85.703125 94.527344 84.597656 C 96.683594 83.460938 98.699219 82.179688 100.574219 80.675781 C 102.460938 79.191406 104.179688 77.515625 105.761719 75.726562 C 106.546875 74.824219 107.289062 73.886719 108.003906 72.925781 C 108.355469 72.4375 108.703125 71.949219 109.03125 71.4375 L 109.519531 70.664062 C 109.683594 70.390625 109.828125 70.152344 110.011719 69.816406 L 110.859375 68.269531 L 109.617188 67.074219 C 109.480469 66.941406 109.40625 66.875 109.304688 66.78125 L 109.023438 66.539062 C 108.835938 66.378906 108.648438 66.226562 108.460938 66.074219 C 108.082031 65.777344 107.707031 65.492188 107.316406 65.21875 C 106.542969 64.679688 105.742188 64.179688 104.925781 63.71875 C 103.289062 62.796875 101.554688 62.039062 99.753906 61.480469 C 97.40625 60.730469 94.929688 60.347656 92.46875 60.347656 C 92.121094 60.347656 91.773438 60.375 91.421875 60.390625 C 91.390625 60.484375 91.359375 60.570312 91.320312 60.667969 C 90.894531 61.8125 90.40625 62.894531 89.882812 63.914062 " fill-opacity="1" fill-rule="nonzero"/></g><path fill="#040606" d="M 60.667969 82.152344 C 60.84375 82.265625 61.027344 82.367188 61.203125 82.472656 L 61.390625 82.378906 C 61.152344 82.304688 60.910156 82.234375 60.667969 82.152344 " fill-opacity="1" fill-rule="nonzero"/><path fill="#bcd6e3" d="M 92.765625 44.890625 C 92.679688 43.699219 92.539062 42.515625 92.359375 41.332031 C 92.265625 40.738281 92.160156 40.148438 92.03125 39.558594 L 91.824219 38.664062 C 91.746094 38.355469 91.679688 38.089844 91.570312 37.71875 L 91.070312 36.03125 L 89.34375 36.058594 C 89.152344 36.058594 89.050781 36.066406 88.914062 36.074219 L 88.539062 36.097656 C 88.292969 36.117188 88.054688 36.140625 87.816406 36.167969 C 87.335938 36.21875 86.867188 36.285156 86.398438 36.367188 C 85.464844 36.527344 84.546875 36.738281 83.640625 36.988281 C 81.824219 37.484375 80.0625 38.171875 78.390625 39.042969 C 75.351562 40.597656 72.648438 42.824219 70.5625 45.488281 C 70.585938 45.542969 70.613281 45.597656 70.636719 45.652344 C 70.988281 46.429688 71.265625 47.082031 71.503906 47.710938 C 71.667969 48.140625 71.816406 48.589844 71.957031 49.042969 C 72.144531 48.8125 72.332031 48.578125 72.527344 48.359375 C 74.648438 45.929688 77.296875 44.0625 80.207031 42.773438 C 81.667969 42.136719 83.191406 41.636719 84.746094 41.277344 C 85.523438 41.097656 86.308594 40.957031 87.097656 40.851562 C 87.222656 40.835938 87.351562 40.828125 87.480469 40.8125 L 87.679688 42.03125 C 87.824219 43.085938 87.9375 44.144531 88 45.207031 C 88.160156 47.335938 88.125 49.472656 87.972656 51.59375 C 87.792969 53.703125 87.476562 55.835938 86.953125 57.859375 C 86.652344 59.035156 86.261719 60.183594 85.800781 61.3125 C 85.46875 62.128906 85.105469 62.933594 84.695312 63.71875 C 84.503906 64.082031 84.296875 64.441406 84.089844 64.796875 C 83.234375 66.277344 82.257812 67.699219 81.164062 69.046875 C 79.800781 70.71875 78.265625 72.277344 76.613281 73.734375 C 73.292969 76.632812 69.527344 79.121094 65.449219 81.15625 C 67.6875 80.679688 69.867188 79.914062 71.988281 79 C 73.050781 78.542969 74.089844 78.027344 75.113281 77.484375 C 76.128906 76.917969 77.136719 76.332031 78.113281 75.683594 C 80.0625 74.390625 81.90625 72.910156 83.597656 71.242188 C 85.273438 69.558594 86.800781 67.691406 88.078125 65.648438 C 88.277344 65.335938 88.453125 65.007812 88.640625 64.683594 C 88.710938 64.558594 88.785156 64.4375 88.855469 64.3125 C 88.925781 64.1875 89.003906 64.066406 89.074219 63.9375 C 89.675781 62.804688 90.199219 61.625 90.652344 60.417969 C 90.695312 60.300781 90.734375 60.175781 90.777344 60.058594 C 90.824219 59.9375 90.863281 59.816406 90.90625 59.695312 C 90.980469 59.484375 91.058594 59.277344 91.128906 59.066406 C 91.84375 56.746094 92.355469 54.421875 92.617188 52.035156 C 92.894531 49.660156 92.917969 47.269531 92.765625 44.890625 " fill-opacity="1" fill-rule="nonzero"/><path fill="#040606" d="M 61.390625 82.378906 L 61.203125 82.472656 C 61.335938 82.554688 61.464844 82.632812 61.597656 82.710938 L 62.101562 82.601562 C 61.863281 82.53125 61.628906 82.457031 61.390625 82.378906 " fill-opacity="1" fill-rule="nonzero"/><g clip-path="url(#1f5fbfed56)"><path fill="#e4bb97" d="M 72.03125 53.457031 L 71.972656 52.539062 C 71.960938 52.335938 71.929688 52.109375 71.894531 51.882812 L 71.851562 51.5625 C 71.796875 51.242188 71.730469 50.914062 71.648438 50.578125 C 71.566406 50.21875 71.464844 49.851562 71.347656 49.46875 C 71.191406 48.957031 71.019531 48.449219 70.835938 47.964844 C 70.601562 47.351562 70.332031 46.710938 69.984375 45.945312 C 69.902344 45.757812 69.8125 45.574219 69.726562 45.390625 C 69.613281 45.148438 69.503906 44.90625 69.386719 44.667969 C 68.480469 42.835938 67.398438 40.957031 65.890625 38.574219 C 64.753906 36.8125 63.457031 34.941406 61.929688 32.859375 C 60.402344 30.824219 59.03125 29.085938 57.617188 27.390625 L 55.890625 25.324219 L 54.160156 27.390625 C 52.78125 29.039062 51.410156 30.773438 49.847656 32.859375 C 48.402344 34.816406 47.105469 36.6875 45.882812 38.574219 C 44.386719 40.929688 43.308594 42.808594 42.382812 44.667969 C 42.273438 44.890625 42.175781 45.113281 42.070312 45.335938 C 42.015625 45.457031 41.957031 45.578125 41.902344 45.699219 C 41.554688 46.457031 41.222656 47.214844 40.9375 47.960938 C 40.648438 48.726562 40.425781 49.410156 40.25 50.070312 C 40.210938 50.214844 40.171875 50.363281 40.140625 50.507812 C 40.054688 50.867188 39.976562 51.21875 39.917969 51.574219 L 39.875 51.882812 C 39.84375 52.109375 39.808594 52.335938 39.796875 52.539062 L 39.742188 53.464844 C 39.722656 53.671875 39.722656 53.871094 39.722656 54.074219 L 39.71875 54.5625 C 39.714844 54.796875 39.710938 55.035156 39.730469 55.269531 C 39.761719 56.371094 39.886719 57.515625 40.125 58.894531 C 40.578125 61.246094 41.351562 63.515625 42.425781 65.632812 C 43.464844 67.703125 44.769531 69.65625 46.296875 71.445312 C 47.035156 72.300781 47.835938 73.144531 48.675781 73.949219 C 48.832031 74.089844 49.003906 74.246094 49.183594 74.402344 C 47.027344 71.339844 45.398438 68.140625 44.328125 64.871094 C 43.992188 63.871094 43.710938 62.804688 43.496094 61.707031 C 43.261719 60.527344 43.117188 59.480469 43.0625 58.503906 C 42.980469 57.257812 42.980469 56.246094 43.054688 55.316406 L 43.085938 55 C 43.121094 54.582031 43.15625 54.164062 43.210938 53.746094 L 43.328125 52.96875 C 43.351562 52.804688 43.382812 52.664062 43.414062 52.523438 C 43.433594 52.441406 43.453125 52.359375 43.46875 52.273438 C 43.609375 51.734375 43.789062 51.179688 44.027344 50.554688 C 44.488281 49.339844 45.128906 48.019531 45.972656 46.519531 C 47.007812 44.695312 48.195312 42.816406 49.507812 40.933594 C 50.707031 39.1875 52.03125 37.367188 53.449219 35.535156 C 54.152344 34.605469 54.878906 33.675781 55.613281 32.757812 L 55.890625 32.40625 L 56.171875 32.757812 C 56.328125 32.953125 56.484375 33.152344 56.636719 33.351562 L 57.25 34.132812 C 57.617188 34.601562 57.984375 35.066406 58.34375 35.535156 C 59.863281 37.519531 61.152344 39.289062 62.28125 40.941406 C 63.609375 42.847656 64.796875 44.726562 65.808594 46.519531 C 67.070312 48.753906 67.886719 50.628906 68.308594 52.253906 C 68.328125 52.359375 68.347656 52.441406 68.367188 52.523438 C 68.398438 52.664062 68.429688 52.808594 68.457031 52.972656 L 68.570312 53.742188 C 68.640625 54.265625 68.6875 54.792969 68.726562 55.320312 C 68.804688 56.246094 68.800781 57.257812 68.722656 58.503906 C 68.574219 60.625 68.148438 62.765625 67.457031 64.871094 C 66.390625 68.128906 64.769531 71.316406 62.625 74.375 C 62.792969 74.222656 62.953125 74.078125 63.105469 73.941406 C 63.9375 73.148438 64.738281 72.304688 65.480469 71.441406 C 67.003906 69.660156 68.304688 67.703125 69.347656 65.632812 C 70.421875 63.515625 71.195312 61.246094 71.648438 58.886719 C 71.886719 57.515625 72.011719 56.367188 72.039062 55.285156 C 72.0625 54.753906 72.058594 54.191406 72.03125 53.457031 " fill-opacity="1" fill-rule="nonzero"/></g></svg>